# xmcd
#
# Track frame offsets:
#	150
#	15135
#	30424
#	45398
#	62916
#	74181
#	88595
#	104312
#	123753
#	137026
#	151285
#	166432
#	178372
#	195030
#
# Disc length: 2875 seconds
#
# Revision: 0
# Processed by: cddbd v1.5.1PL2 Copyright (c) Steve Scherf et al.
# Submitted via: audiograbber 1.83.01
#
DISCID=b00b390e
DTITLE=Edson and Hudson - Galera Coração
DYEAR=2005
DGENRE=Country
TTITLE0=Galera coração
TTITLE1=Esqueça que eu te amo
TTITLE2=Tá no meu coração
TTITLE3=Não tem dia, não tem hora
TTITLE4=Festa louca
TTITLE5=Por amar essa mulher
TTITLE6=Te quero pra mim
TTITLE7=Vou tentar ser herói
TTITLE8=Abre a janela
TTITLE9=É amor demais
TTITLE10=Amor e ilusão
TTITLE11=Chega junto
TTITLE12=Bebo pa cari - Pot pourri
TTITLE13=Vai ser pior tentar outra vez
EXTD=
EXTT0=
EXTT1=
EXTT2=
EXTT3=
EXTT4=
EXTT5=
EXTT6=
EXTT7=
EXTT8=
EXTT9=
EXTT10=
EXTT11=
EXTT12=
EXTT13=
PLAYORDER=
